<svg width="495" height="330" viewBox="0 0 495 330" fill="none" xmlns="http://www.w3.org/2000/svg">
<path d="M154.688 165C154.688 256.127 256.127 330 165 330C73.873 330 0 256.127 0 165C0 73.873 73.873 0 165 0C256.127 0 154.688 73.873 154.688 165Z" fill="#462E80"/>
<path d="M484.688 165C484.688 250.432 415.432 319.688 330 319.688C244.568 319.688 175.312 250.432 175.312 165C175.312 79.5684 244.568 10.3125 330 10.3125C415.432 10.3125 484.688 79.5684 484.688 165Z" stroke="#462E80" stroke-width="20.625"/>
<path d="M338.621 171.273H300.956L300.754 150.527H332.377C337.949 150.527 342.515 149.822 346.073 148.412C349.631 146.935 352.283 144.82 354.029 142.067C355.842 139.247 356.748 135.823 356.748 131.795C356.748 127.23 355.875 123.537 354.13 120.717C352.451 117.897 349.799 115.85 346.174 114.574C342.615 113.298 338.016 112.661 332.377 112.661H311.429V235.625H281.217V88.9941H332.377C340.903 88.9941 348.524 89.7998 355.237 91.4111C362.018 93.0225 367.759 95.473 372.458 98.7628C377.158 102.053 380.75 106.215 383.234 111.251C385.718 116.219 386.96 122.127 386.96 128.975C386.96 135.018 385.584 140.59 382.831 145.693C380.146 150.795 375.883 154.958 370.042 158.181C364.268 161.403 356.714 163.182 347.382 163.518L338.621 171.273ZM337.311 235.625H292.698L304.481 212.059H337.311C342.615 212.059 346.946 211.22 350.303 209.542C353.66 207.796 356.144 205.446 357.755 202.492C359.366 199.538 360.172 196.147 360.172 192.321C360.172 188.024 359.434 184.297 357.957 181.142C356.547 177.986 354.264 175.569 351.108 173.891C347.953 172.145 343.79 171.273 338.621 171.273H309.516L309.717 150.527H345.972L352.921 158.684C361.851 158.55 369.034 160.128 374.473 163.417C379.978 166.64 383.973 170.836 386.457 176.006C389.008 181.176 390.284 186.714 390.284 192.623C390.284 202.022 388.236 209.944 384.141 216.39C380.045 222.768 374.036 227.568 366.114 230.791C358.259 234.014 348.658 235.625 337.311 235.625Z" fill="#462E80"/>
</svg>
